<svg xmlns="http://www.w3.org/2000/svg" xmlns:xlink="http://www.w3.org/1999/xlink" width="500" zoomAndPan="magnify" viewBox="0 0 375 374.999991" height="500" preserveAspectRatio="xMidYMid meet" version="1.0"><defs><g/><clipPath id="84ac2dd495"><path d="M 314.480469 177.046875 L 318.546875 177.046875 L 318.546875 181.113281 L 314.480469 181.113281 Z M 314.480469 177.046875 " clip-rule="nonzero"/></clipPath><clipPath id="c608b0c1eb"><path d="M 316.515625 177.046875 C 315.390625 177.046875 314.480469 177.957031 314.480469 179.082031 C 314.480469 180.203125 315.390625 181.113281 316.515625 181.113281 C 317.636719 181.113281 318.546875 180.203125 318.546875 179.082031 C 318.546875 177.957031 317.636719 177.046875 316.515625 177.046875 Z M 316.515625 177.046875 " clip-rule="nonzero"/></clipPath></defs><g fill="#000000" fill-opacity="1"><g transform="translate(57.8549, 228.31445)"><g><path d="M 118.171875 -17.34375 C 118.242188 -17.351562 118.320312 -17.367188 118.40625 -17.390625 C 118.582031 -17.410156 118.757812 -17.414062 118.9375 -17.40625 C 119.125 -17.394531 119.300781 -17.320312 119.46875 -17.1875 C 119.519531 -17.15625 119.566406 -17.109375 119.609375 -17.046875 C 119.648438 -16.992188 119.675781 -16.925781 119.6875 -16.84375 C 119.675781 -16.789062 119.65625 -16.726562 119.625 -16.65625 C 119.59375 -16.582031 119.5625 -16.523438 119.53125 -16.484375 C 119.320312 -16.398438 119.109375 -16.351562 118.890625 -16.34375 C 118.785156 -16.320312 118.671875 -16.300781 118.546875 -16.28125 C 117.265625 -16.15625 115.972656 -16.046875 114.671875 -15.953125 C 112.296875 -15.742188 109.929688 -15.53125 107.578125 -15.3125 C 97.828125 -14.34375 88.242188 -13.117188 78.828125 -11.640625 C 69.421875 -10.171875 59.910156 -8.492188 50.296875 -6.609375 C 49.273438 -6.421875 48.269531 -6.191406 47.28125 -5.921875 C 46.320312 -5.703125 45.359375 -5.503906 44.390625 -5.328125 C 43.460938 -5.140625 42.796875 -4.609375 42.390625 -3.734375 C 40.515625 -0.160156 38.40625 3.273438 36.0625 6.578125 C 34.414062 8.898438 32.65625 11.035156 30.78125 12.984375 C 28.90625 14.941406 26.867188 16.582031 24.671875 17.90625 C 22.472656 19.226562 20.09375 20.09375 17.53125 20.5 C 14.976562 20.90625 12.210938 20.707031 9.234375 19.90625 C 7.847656 19.550781 6.570312 18.9375 5.40625 18.0625 C 3.5 16.488281 3 14.535156 3.90625 12.203125 C 4.570312 10.710938 5.535156 9.40625 6.796875 8.28125 C 8.679688 6.539062 10.957031 4.957031 13.625 3.53125 C 16.289062 2.101562 19.144531 0.832031 22.1875 -0.28125 C 25.226562 -1.40625 28.234375 -2.394531 31.203125 -3.25 C 34.179688 -4.101562 36.90625 -4.820312 39.375 -5.40625 C 40.382812 -5.65625 41.097656 -6.226562 41.515625 -7.125 C 43.097656 -10.4375 44.726562 -14.285156 46.40625 -18.671875 C 48.082031 -23.066406 49.632812 -27.648438 51.0625 -32.421875 C 52.5 -37.191406 53.648438 -41.796875 54.515625 -46.234375 C 55.378906 -50.671875 55.8125 -54.613281 55.8125 -58.0625 C 55.789062 -59.101562 55.585938 -60.113281 55.203125 -61.09375 C 54.523438 -62.65625 53.351562 -63.421875 51.6875 -63.390625 C 51.46875 -63.367188 51.25 -63.34375 51.03125 -63.3125 C 50.539062 -63.226562 50.070312 -63.085938 49.625 -62.890625 C 47.59375 -62.117188 45.15625 -60.742188 42.3125 -58.765625 C 39.476562 -56.785156 36.550781 -54.425781 33.53125 -51.6875 C 30.507812 -48.957031 27.660156 -46.035156 24.984375 -42.921875 C 22.316406 -39.816406 20.128906 -36.738281 18.421875 -33.6875 C 16.722656 -30.644531 15.785156 -27.816406 15.609375 -25.203125 C 15.492188 -22.960938 16.519531 -21.503906 18.6875 -20.828125 C 20.394531 -20.378906 22.144531 -20.347656 23.9375 -20.734375 C 25.726562 -21.117188 27.425781 -21.617188 29.03125 -22.234375 C 30.007812 -22.597656 31.007812 -22.863281 32.03125 -23.03125 C 32.457031 -23.101562 32.878906 -23.148438 33.296875 -23.171875 C 33.398438 -23.191406 33.5 -23.175781 33.59375 -23.125 C 33.695312 -23.082031 33.742188 -22.984375 33.734375 -22.828125 C 33.722656 -22.554688 33.613281 -22.394531 33.40625 -22.34375 C 32.019531 -21.976562 30.628906 -21.570312 29.234375 -21.125 C 27.554688 -20.53125 25.851562 -20.039062 24.125 -19.65625 C 22.40625 -19.269531 20.660156 -19.164062 18.890625 -19.34375 C 17.984375 -19.4375 17.117188 -19.664062 16.296875 -20.03125 C 14.316406 -20.925781 13.328125 -22.46875 13.328125 -24.65625 C 13.390625 -27.414062 14.304688 -30.429688 16.078125 -33.703125 C 17.859375 -36.972656 20.15625 -40.242188 22.96875 -43.515625 C 25.78125 -46.796875 28.816406 -49.875 32.078125 -52.75 C 35.335938 -55.632812 38.488281 -58.085938 41.53125 -60.109375 C 44.570312 -62.140625 47.195312 -63.515625 49.40625 -64.234375 C 49.9375 -64.429688 50.488281 -64.554688 51.0625 -64.609375 C 52.019531 -64.804688 52.972656 -64.835938 53.921875 -64.703125 C 55.703125 -64.441406 56.953125 -63.476562 57.671875 -61.8125 C 58.347656 -60.007812 58.523438 -57.429688 58.203125 -54.078125 C 57.890625 -50.734375 57.238281 -46.953125 56.25 -42.734375 C 55.257812 -38.523438 54.085938 -34.265625 52.734375 -29.953125 C 51.390625 -25.648438 50.039062 -21.671875 48.6875 -18.015625 C 47.34375 -14.367188 46.144531 -11.414062 45.09375 -9.15625 C 44.800781 -8.550781 44.523438 -7.941406 44.265625 -7.328125 C 44.210938 -7.160156 44.234375 -7.019531 44.328125 -6.90625 C 44.429688 -6.800781 44.570312 -6.757812 44.75 -6.78125 L 44.78125 -6.796875 C 45.238281 -6.867188 45.691406 -6.953125 46.140625 -7.046875 C 47.492188 -7.304688 48.835938 -7.585938 50.171875 -7.890625 C 52.984375 -8.484375 55.816406 -9.054688 58.671875 -9.609375 C 78.335938 -13.390625 98.171875 -15.96875 118.171875 -17.34375 Z M 38.203125 -0.921875 C 38.304688 -1.117188 38.414062 -1.316406 38.53125 -1.515625 C 38.738281 -1.859375 38.945312 -2.226562 39.15625 -2.625 C 39.363281 -3.03125 39.535156 -3.488281 39.671875 -4 C 39.441406 -3.96875 39.226562 -3.9375 39.03125 -3.90625 C 38.957031 -3.882812 38.878906 -3.867188 38.796875 -3.859375 C 38.703125 -3.847656 38.585938 -3.832031 38.453125 -3.8125 C 37.640625 -3.570312 36.828125 -3.332031 36.015625 -3.09375 C 34.960938 -2.78125 33.914062 -2.476562 32.875 -2.1875 C 30.445312 -1.550781 27.648438 -0.671875 24.484375 0.453125 C 21.316406 1.585938 18.253906 2.921875 15.296875 4.453125 C 12.335938 5.984375 9.976562 7.691406 8.21875 9.578125 C 7.613281 10.210938 7.085938 10.925781 6.640625 11.71875 C 5.304688 14.101562 5.789062 16.023438 8.09375 17.484375 C 10.707031 18.972656 13.257812 19.609375 15.75 19.390625 C 18.238281 19.171875 20.613281 18.34375 22.875 16.90625 C 25.132812 15.46875 27.226562 13.695312 29.15625 11.59375 C 31.082031 9.488281 32.8125 7.328125 34.34375 5.109375 C 35.875 2.890625 37.160156 0.878906 38.203125 -0.921875 Z M 38.203125 -0.921875 "/></g></g><g transform="translate(114.921501, 219.04548)"><g><path d="M -0.0625 -3.125 C -1.164062 -2.945312 -1.8125 -3.4375 -2 -4.59375 C -2.226562 -5.988281 -1.71875 -8.609375 -0.46875 -12.453125 C -0.414062 -12.617188 -0.300781 -12.71875 -0.125 -12.75 C 0.601562 -12.863281 1.015625 -12.625 1.109375 -12.03125 C 1.140625 -11.832031 1.117188 -11.570312 1.046875 -11.25 C 1.015625 -11.15625 0.648438 -9.53125 -0.046875 -6.375 C -0.148438 -5.851562 -0.179688 -5.476562 -0.140625 -5.25 C -0.0976562 -4.988281 0.0390625 -4.878906 0.28125 -4.921875 C 1.125 -5.054688 2.992188 -7.519531 5.890625 -12.3125 C 6.253906 -12.945312 6.660156 -13.300781 7.109375 -13.375 C 7.773438 -13.476562 8.148438 -13.289062 8.234375 -12.8125 C 8.265625 -12.625 8.175781 -11.882812 7.96875 -10.59375 C 7.675781 -8.851562 7.550781 -7.859375 7.59375 -7.609375 C 7.65625 -7.222656 7.8125 -7.050781 8.0625 -7.09375 C 8.707031 -7.195312 10.382812 -8.628906 13.09375 -11.390625 C 13.25 -11.578125 13.382812 -11.679688 13.5 -11.703125 C 13.789062 -11.742188 13.972656 -11.523438 14.046875 -11.046875 C 14.066406 -10.910156 14.046875 -10.796875 13.984375 -10.703125 C 12.578125 -9.046875 11.363281 -7.757812 10.34375 -6.84375 C 9.40625 -6.007812 8.53125 -5.523438 7.71875 -5.390625 L 7.484375 -5.359375 C 6.253906 -5.410156 5.507812 -6.238281 5.25 -7.84375 C 4.15625 -6.519531 3.242188 -5.441406 2.515625 -4.609375 C 1.785156 -3.785156 0.925781 -3.289062 -0.0625 -3.125 Z M -0.0625 -3.125 "/></g></g><g transform="translate(129.183813, 216.728942)"><g><path d="M 12.015625 -11.046875 C 12.128906 -10.921875 12.171875 -10.789062 12.140625 -10.65625 C 12.117188 -10.53125 12.054688 -10.40625 11.953125 -10.28125 C 11.265625 -9.425781 10.457031 -8.707031 9.53125 -8.125 C 7.976562 -7.070312 6.296875 -6.300781 4.484375 -5.8125 C 3.035156 -5.414062 1.609375 -5.40625 0.203125 -5.78125 C -0.316406 -5.925781 -0.660156 -5.753906 -0.828125 -5.265625 C -1.046875 -4.566406 -1.28125 -3.875 -1.53125 -3.1875 C -1.644531 -2.800781 -1.773438 -2.398438 -1.921875 -1.984375 C -1.953125 -1.929688 -1.972656 -1.875 -1.984375 -1.8125 C -2.046875 -1.675781 -2.097656 -1.539062 -2.140625 -1.40625 C -2.191406 -1.28125 -2.304688 -1.1875 -2.484375 -1.125 C -2.578125 -1.070312 -2.675781 -1.035156 -2.78125 -1.015625 C -2.894531 -1.003906 -2.992188 -1.019531 -3.078125 -1.0625 C -3.160156 -1.113281 -3.234375 -1.179688 -3.296875 -1.265625 C -3.359375 -1.347656 -3.394531 -1.441406 -3.40625 -1.546875 C -3.382812 -1.890625 -3.332031 -2.234375 -3.25 -2.578125 C -3.03125 -3.390625 -2.820312 -4.175781 -2.625 -4.9375 C -2.132812 -6.882812 -1.609375 -8.820312 -1.046875 -10.75 C 0.554688 -16.0625 2.035156 -21.394531 3.390625 -26.75 C 3.472656 -27.257812 3.632812 -27.726562 3.875 -28.15625 C 4.070312 -28.46875 4.378906 -28.597656 4.796875 -28.546875 C 5.253906 -28.441406 5.429688 -28.171875 5.328125 -27.734375 C 5.179688 -26.816406 5.023438 -25.898438 4.859375 -24.984375 C 3.890625 -20.753906 2.757812 -16.578125 1.46875 -12.453125 C 1.195312 -11.566406 1.132812 -11.023438 1.28125 -10.828125 C 1.4375 -10.640625 1.710938 -10.664062 2.109375 -10.90625 C 2.503906 -11.15625 2.96875 -11.476562 3.5 -11.875 C 3.851562 -12.164062 4.222656 -12.429688 4.609375 -12.671875 C 4.671875 -12.742188 4.734375 -12.800781 4.796875 -12.84375 C 5.253906 -13.195312 5.757812 -13.429688 6.3125 -13.546875 C 6.53125 -13.585938 6.707031 -13.515625 6.84375 -13.328125 C 6.925781 -13.203125 6.945312 -13.085938 6.90625 -12.984375 C 6.875 -12.890625 6.820312 -12.8125 6.75 -12.75 C 5.96875 -12.101562 5.164062 -11.476562 4.34375 -10.875 C 3.945312 -10.601562 3.535156 -10.316406 3.109375 -10.015625 C 2.691406 -9.734375 2.285156 -9.441406 1.890625 -9.140625 C 1.609375 -8.910156 1.363281 -8.660156 1.15625 -8.390625 C 0.65625 -7.679688 0.800781 -7.1875 1.59375 -6.90625 C 2.21875 -6.75 2.828125 -6.710938 3.421875 -6.796875 C 4.023438 -6.878906 4.613281 -7.039062 5.1875 -7.28125 C 6.9375 -7.988281 8.539062 -8.9375 10 -10.125 C 10.113281 -10.207031 10.234375 -10.289062 10.359375 -10.375 C 10.628906 -10.625 10.914062 -10.847656 11.21875 -11.046875 C 11.34375 -11.117188 11.476562 -11.160156 11.625 -11.171875 C 11.78125 -11.191406 11.910156 -11.148438 12.015625 -11.046875 Z M 12.015625 -11.046875 "/></g></g><g transform="translate(141.398738, 214.744949)"><g><path d="M -0.0625 -3.125 C -1.164062 -2.945312 -1.8125 -3.4375 -2 -4.59375 C -2.226562 -5.988281 -1.71875 -8.609375 -0.46875 -12.453125 C -0.414062 -12.617188 -0.300781 -12.71875 -0.125 -12.75 C 0.601562 -12.863281 1.015625 -12.625 1.109375 -12.03125 C 1.140625 -11.832031 1.117188 -11.570312 1.046875 -11.25 C 1.015625 -11.15625 0.648438 -9.53125 -0.046875 -6.375 C -0.148438 -5.851562 -0.179688 -5.476562 -0.140625 -5.25 C -0.0976562 -4.988281 0.0390625 -4.878906 0.28125 -4.921875 C 1.125 -5.054688 2.992188 -7.519531 5.890625 -12.3125 C 6.253906 -12.945312 6.660156 -13.300781 7.109375 -13.375 C 7.773438 -13.476562 8.148438 -13.289062 8.234375 -12.8125 C 8.265625 -12.625 8.175781 -11.882812 7.96875 -10.59375 C 7.675781 -8.851562 7.550781 -7.859375 7.59375 -7.609375 C 7.65625 -7.222656 7.8125 -7.050781 8.0625 -7.09375 C 8.707031 -7.195312 10.382812 -8.628906 13.09375 -11.390625 C 13.25 -11.578125 13.382812 -11.679688 13.5 -11.703125 C 13.789062 -11.742188 13.972656 -11.523438 14.046875 -11.046875 C 14.066406 -10.910156 14.046875 -10.796875 13.984375 -10.703125 C 12.578125 -9.046875 11.363281 -7.757812 10.34375 -6.84375 C 9.40625 -6.007812 8.53125 -5.523438 7.71875 -5.390625 L 7.484375 -5.359375 C 6.253906 -5.410156 5.507812 -6.238281 5.25 -7.84375 C 4.15625 -6.519531 3.242188 -5.441406 2.515625 -4.609375 C 1.785156 -3.785156 0.925781 -3.289062 -0.0625 -3.125 Z M -0.0625 -3.125 "/></g></g><g transform="translate(155.66105, 212.428411)"><g><path d="M 7.0625 -9.640625 C 7.375 -10.085938 7.65625 -10.351562 7.90625 -10.4375 C 8.15625 -10.519531 8.328125 -10.503906 8.421875 -10.390625 C 8.523438 -10.285156 8.503906 -10.109375 8.359375 -9.859375 C 7.535156 -8.460938 6.566406 -7.21875 5.453125 -6.125 C 4.335938 -5.03125 3.125 -4.300781 1.8125 -3.9375 C 0.5 -3.582031 -0.425781 -4.179688 -0.96875 -5.734375 C -1.4375 -7.285156 -1 -10.671875 0.34375 -15.890625 C 1.6875 -21.109375 2.71875 -25.367188 3.4375 -28.671875 C 3.5 -28.972656 3.617188 -29.242188 3.796875 -29.484375 C 4.023438 -29.804688 4.34375 -29.921875 4.75 -29.828125 C 4.894531 -29.785156 5.039062 -29.710938 5.1875 -29.609375 C 5.332031 -29.515625 5.410156 -29.296875 5.421875 -28.953125 C 2.054688 -15.085938 0.550781 -7.601562 0.90625 -6.5 C 1.257812 -5.394531 2.035156 -5.234375 3.234375 -6.015625 C 4.429688 -6.804688 5.332031 -7.554688 5.9375 -8.265625 C 6.539062 -8.972656 6.914062 -9.429688 7.0625 -9.640625 Z M 7.0625 -9.640625 "/></g></g><g transform="translate(164.319072, 211.022143)"><g><path d="M 12.15625 -11.25 C 12.351562 -10.988281 12.175781 -10.5 11.625 -9.78125 C 11.070312 -9.070312 10.050781 -8.148438 8.5625 -7.015625 C 8 -6.671875 7.59375 -6.398438 7.34375 -6.203125 C 7.09375 -6.003906 6.921875 -5.78125 6.828125 -5.53125 C 6.734375 -5.28125 6.644531 -4.894531 6.5625 -4.375 C 6.5 -4 6.410156 -3.492188 6.296875 -2.859375 C 6.148438 -2.066406 6 -1.253906 5.84375 -0.421875 C 5.59375 1.265625 5.242188 2.945312 4.796875 4.625 C 4.359375 6.3125 3.675781 7.828125 2.75 9.171875 C 1.832031 10.515625 0.535156 11.519531 -1.140625 12.1875 C -2.847656 12.8125 -4.539062 13.140625 -6.21875 13.171875 C -7.90625 13.203125 -9.59375 13.007812 -11.28125 12.59375 C -11.957031 12.40625 -12.59375 12.113281 -13.1875 11.71875 C -14.164062 10.988281 -14.382812 10.03125 -13.84375 8.84375 C -13.539062 8.25 -13.175781 7.695312 -12.75 7.1875 C -11.863281 6.195312 -10.921875 5.273438 -9.921875 4.421875 C -8.046875 2.816406 -6.113281 1.320312 -4.125 -0.0625 C -2.132812 -1.445312 -0.113281 -2.804688 1.9375 -4.140625 C 2.082031 -4.242188 2.238281 -4.351562 2.40625 -4.46875 C 2.96875 -4.832031 3.539062 -5.207031 4.125 -5.59375 C 4.539062 -5.820312 4.789062 -6.160156 4.875 -6.609375 C 4.894531 -6.773438 4.882812 -6.921875 4.84375 -7.046875 C 4.800781 -7.117188 4.742188 -7.15625 4.671875 -7.15625 C 4.609375 -7.15625 4.546875 -7.128906 4.484375 -7.078125 C 4.285156 -6.910156 4.082031 -6.722656 3.875 -6.515625 C 3.75 -6.429688 3.625 -6.328125 3.5 -6.203125 C 2.769531 -5.609375 1.972656 -5.269531 1.109375 -5.1875 C -0.242188 -4.96875 -1.03125 -5.457031 -1.25 -6.65625 C -1.425781 -7.65625 -1.40625 -8.628906 -1.1875 -9.578125 C -0.96875 -10.523438 -0.585938 -11.453125 -0.046875 -12.359375 C 0.015625 -12.453125 0.101562 -12.535156 0.21875 -12.609375 C 0.332031 -12.679688 0.457031 -12.738281 0.59375 -12.78125 C 0.613281 -12.78125 0.632812 -12.796875 0.65625 -12.828125 C 0.90625 -12.898438 1.113281 -12.867188 1.28125 -12.734375 C 1.445312 -12.597656 1.503906 -12.410156 1.453125 -12.171875 C 1.359375 -11.828125 1.265625 -11.472656 1.171875 -11.109375 C 1.085938 -10.828125 1 -10.550781 0.90625 -10.28125 C 0.570312 -9.195312 0.507812 -8.117188 0.71875 -7.046875 C 0.769531 -6.816406 0.894531 -6.664062 1.09375 -6.59375 C 1.300781 -6.519531 1.515625 -6.554688 1.734375 -6.703125 C 2.367188 -7.078125 2.898438 -7.566406 3.328125 -8.171875 C 4.492188 -9.640625 5.390625 -11.257812 6.015625 -13.03125 C 6.109375 -13.28125 6.222656 -13.5 6.359375 -13.6875 C 6.503906 -13.882812 6.710938 -14.015625 6.984375 -14.078125 C 7.335938 -14.171875 7.625 -14.132812 7.84375 -13.96875 C 8.0625 -13.8125 8.160156 -13.570312 8.140625 -13.25 C 7.984375 -12.164062 7.804688 -11.085938 7.609375 -10.015625 C 7.597656 -9.921875 7.585938 -9.835938 7.578125 -9.765625 C 7.515625 -9.503906 7.460938 -9.242188 7.421875 -8.984375 C 7.390625 -8.722656 7.390625 -8.492188 7.421875 -8.296875 C 7.453125 -8.109375 7.546875 -8.023438 7.703125 -8.046875 C 8.316406 -8.273438 9.160156 -8.929688 10.234375 -10.015625 C 11.316406 -11.109375 11.957031 -11.519531 12.15625 -11.25 Z M 4.1875 -2.8125 C 4.175781 -2.875 4.1875 -2.929688 4.21875 -2.984375 C 4.269531 -3.128906 4.285156 -3.273438 4.265625 -3.421875 C 4.253906 -3.578125 4.1875 -3.726562 4.0625 -3.875 C 3.976562 -3.851562 3.914062 -3.84375 3.875 -3.84375 C 3.726562 -3.769531 3.597656 -3.703125 3.484375 -3.640625 C 3.234375 -3.503906 2.988281 -3.347656 2.75 -3.171875 C 0.875 -1.898438 -1 -0.601562 -2.875 0.71875 C -4.75 2.050781 -6.570312 3.429688 -8.34375 4.859375 C -9.425781 5.734375 -10.421875 6.710938 -11.328125 7.796875 C -12.066406 8.703125 -12.367188 9.441406 -12.234375 10.015625 C -12.109375 10.585938 -11.519531 11.023438 -10.46875 11.328125 C -8.082031 12.109375 -5.628906 12.1875 -3.109375 11.5625 C -1.398438 11.101562 -0.0976562 10.21875 0.796875 8.90625 C 1.691406 7.601562 2.351562 6.101562 2.78125 4.40625 C 3.21875 2.71875 3.566406 1.046875 3.828125 -0.609375 C 3.929688 -1.378906 4.050781 -2.113281 4.1875 -2.8125 Z M 4.1875 -2.8125 "/></g></g><g transform="translate(176.950414, 208.970513)"><g><path d="M 12.328125 -10.890625 C 12.554688 -10.691406 12.394531 -10.234375 11.84375 -9.515625 C 11.300781 -8.804688 10.695312 -8.179688 10.03125 -7.640625 C 9.375 -7.109375 8.597656 -6.550781 7.703125 -5.96875 C 7.117188 -5.582031 6.460938 -5.378906 5.734375 -5.359375 C 5.003906 -5.335938 4.570312 -5.710938 4.4375 -6.484375 C 4.3125 -7.265625 4.363281 -8.0625 4.59375 -8.875 C 4.820312 -9.726562 4.832031 -10.144531 4.625 -10.125 C 4.425781 -10.113281 4.039062 -9.859375 3.46875 -9.359375 C 1.988281 -8.003906 0.65625 -6.515625 -0.53125 -4.890625 C -0.84375 -4.367188 -1.289062 -4.03125 -1.875 -3.875 C -2.175781 -3.832031 -2.425781 -3.890625 -2.625 -4.046875 C -2.820312 -4.210938 -2.875 -4.414062 -2.78125 -4.65625 C -2.070312 -6.695312 -1.347656 -8.726562 -0.609375 -10.75 C -0.429688 -11.164062 -0.117188 -11.457031 0.328125 -11.625 C 0.515625 -11.6875 0.703125 -11.65625 0.890625 -11.53125 C 1.085938 -11.40625 1.203125 -11.242188 1.234375 -11.046875 C 1.242188 -10.847656 1.207031 -10.613281 1.125 -10.34375 C 1.082031 -10.1875 1.046875 -10.035156 1.015625 -9.890625 C 0.992188 -9.742188 1 -9.625 1.03125 -9.53125 C 1.0625 -9.4375 1.140625 -9.414062 1.265625 -9.46875 C 1.421875 -9.59375 1.570312 -9.722656 1.71875 -9.859375 C 2.125 -10.191406 2.507812 -10.507812 2.875 -10.8125 C 3.195312 -11.0625 3.539062 -11.300781 3.90625 -11.53125 C 4.28125 -11.757812 4.675781 -11.9375 5.09375 -12.0625 C 5.78125 -12.21875 6.296875 -12.140625 6.640625 -11.828125 C 6.992188 -11.523438 7.113281 -11.035156 7 -10.359375 C 6.851562 -9.742188 6.703125 -9.128906 6.546875 -8.515625 C 6.316406 -7.941406 6.328125 -7.53125 6.578125 -7.28125 C 6.828125 -7.039062 7.738281 -7.519531 9.3125 -8.71875 L 10.5 -9.671875 C 11.601562 -10.660156 12.210938 -11.066406 12.328125 -10.890625 Z M 12.328125 -10.890625 "/></g></g><g transform="translate(189.66851, 206.904792)"><g><path d="M 3.078125 -21.046875 C 3.609375 -21.265625 4.015625 -21.09375 4.296875 -20.53125 C 4.578125 -20.03125 4.765625 -19.515625 4.859375 -18.984375 C 4.929688 -18.503906 4.90625 -18.066406 4.78125 -17.671875 C 4.664062 -17.273438 4.503906 -16.898438 4.296875 -16.546875 C 4.160156 -16.335938 4.007812 -16.210938 3.84375 -16.171875 C 3.675781 -16.128906 3.492188 -16.144531 3.296875 -16.21875 C 3.015625 -16.3125 2.988281 -16.535156 3.21875 -16.890625 C 3.519531 -17.890625 3.414062 -18.613281 2.90625 -19.0625 C 2.394531 -19.519531 2.191406 -19.925781 2.296875 -20.28125 C 2.410156 -20.632812 2.671875 -20.890625 3.078125 -21.046875 Z M 3.078125 -21.046875 "/></g></g><g transform="translate(199.263472, 205.346343)"><g><path d="M 6.984375 -10.15625 C 5.253906 -9.175781 4.019531 -8.40625 3.28125 -7.84375 C 2.738281 -7.457031 2.4375 -7.160156 2.375 -6.953125 C 2.320312 -6.753906 2.445312 -6.421875 2.75 -5.953125 C 2.757812 -5.929688 2.785156 -5.898438 2.828125 -5.859375 C 3.179688 -5.273438 3.4375 -4.660156 3.59375 -4.015625 C 3.882812 -2.703125 2.898438 -1.585938 0.640625 -0.671875 C -1.609375 0.242188 -3.171875 0.515625 -4.046875 0.140625 C -4.921875 -0.222656 -5.265625 -0.8125 -5.078125 -1.625 C -4.898438 -2.445312 -4.234375 -3.351562 -3.078125 -4.34375 C -1.921875 -5.34375 -1.148438 -6.050781 -0.765625 -6.46875 C -0.390625 -6.882812 -0.328125 -7.296875 -0.578125 -7.703125 C -0.648438 -7.828125 -0.738281 -7.960938 -0.84375 -8.109375 C -1.039062 -8.453125 -1.253906 -8.796875 -1.484375 -9.140625 C -1.898438 -9.773438 -2.140625 -10.4375 -2.203125 -11.125 C -2.273438 -11.8125 -2.117188 -12.421875 -1.734375 -12.953125 C -1.347656 -13.484375 -0.679688 -13.84375 0.265625 -14.03125 C 0.804688 -14.132812 1.300781 -14.140625 1.75 -14.046875 C 2.207031 -13.953125 2.601562 -13.703125 2.9375 -13.296875 C 3.195312 -13.015625 3.175781 -12.71875 2.875 -12.40625 C 2.6875 -12.1875 2.457031 -12.117188 2.1875 -12.203125 C 2.019531 -12.253906 1.847656 -12.328125 1.671875 -12.421875 C 1.660156 -12.460938 1.65625 -12.484375 1.65625 -12.484375 C 1.582031 -12.515625 1.515625 -12.550781 1.453125 -12.59375 C 1.359375 -12.6875 1.265625 -12.757812 1.171875 -12.8125 C 0.847656 -12.96875 0.535156 -12.976562 0.234375 -12.84375 C -0.0546875 -12.71875 -0.242188 -12.445312 -0.328125 -12.03125 C -0.390625 -11.71875 -0.394531 -11.40625 -0.34375 -11.09375 C -0.25 -10.707031 -0.0976562 -10.347656 0.109375 -10.015625 C 0.234375 -9.816406 0.351562 -9.628906 0.46875 -9.453125 C 0.75 -8.972656 0.96875 -8.644531 1.125 -8.46875 C 1.289062 -8.300781 1.457031 -8.25 1.625 -8.3125 C 1.800781 -8.375 3.34375 -9.226562 6.25 -10.875 C 6.90625 -11.21875 7.148438 -10.976562 6.984375 -10.15625 Z M 0.515625 -2.3125 C 1.285156 -2.726562 1.546875 -3.328125 1.296875 -4.109375 C 1.285156 -4.171875 1.257812 -4.238281 1.21875 -4.3125 C 1.101562 -4.738281 0.957031 -5.054688 0.78125 -5.265625 C 0.601562 -5.472656 0.289062 -5.414062 -0.15625 -5.09375 C -1.238281 -4.21875 -2.21875 -3.238281 -3.09375 -2.15625 C -3.15625 -2.0625 -3.210938 -1.972656 -3.265625 -1.890625 C -3.265625 -1.890625 -3.269531 -1.875 -3.28125 -1.84375 C -3.332031 -1.738281 -3.328125 -1.628906 -3.265625 -1.515625 C -3.203125 -1.398438 -3.085938 -1.359375 -2.921875 -1.390625 C -1.691406 -1.398438 -0.546875 -1.707031 0.515625 -2.3125 Z M 0.515625 -2.3125 "/></g></g><g transform="translate(206.949852, 204.097892)"><g/></g><g transform="translate(220.067016, 201.967354)"><g><path d="M 80.796875 -63.171875 C 81.265625 -62.992188 81.585938 -62.703125 81.765625 -62.296875 C 81.953125 -61.890625 81.957031 -61.457031 81.78125 -61 C 81.488281 -60.3125 81.101562 -59.671875 80.625 -59.078125 C 79.675781 -57.859375 78.597656 -56.710938 77.390625 -55.640625 C 71.296875 -50.078125 64.503906 -45.5 57.015625 -41.90625 C 56.671875 -41.75 56.332031 -41.582031 56 -41.40625 C 55.5 -41.144531 54.984375 -40.890625 54.453125 -40.640625 C 54.304688 -40.566406 54.160156 -40.566406 54.015625 -40.640625 C 53.878906 -40.710938 53.78125 -40.832031 53.71875 -41 C 53.707031 -41.070312 53.71875 -41.164062 53.75 -41.28125 C 53.789062 -41.40625 53.851562 -41.492188 53.9375 -41.546875 C 54.5625 -41.929688 55.210938 -42.300781 55.890625 -42.65625 C 63.347656 -46.539062 70.148438 -51.375 76.296875 -57.15625 C 77.035156 -57.914062 77.742188 -58.6875 78.421875 -59.46875 C 78.503906 -59.59375 78.609375 -59.703125 78.734375 -59.796875 C 79.078125 -60.191406 79.296875 -60.660156 79.390625 -61.203125 C 79.441406 -61.503906 79.3125 -61.742188 79 -61.921875 C 78.664062 -62.066406 78.300781 -62.125 77.90625 -62.09375 C 77.832031 -62.082031 77.753906 -62.082031 77.671875 -62.09375 C 76.128906 -62.09375 74.601562 -61.96875 73.09375 -61.71875 C 71.582031 -61.476562 70.085938 -61.175781 68.609375 -60.8125 C 65.242188 -59.925781 61.921875 -58.910156 58.640625 -57.765625 C 55.359375 -56.628906 52.09375 -55.4375 48.84375 -54.1875 C 39.195312 -50.457031 29.820312 -46.191406 20.71875 -41.390625 C 17.457031 -39.679688 14.242188 -37.90625 11.078125 -36.0625 C 7.921875 -34.226562 4.828125 -32.269531 1.796875 -30.1875 C 0.972656 -29.59375 0.15625 -29.007812 -0.65625 -28.4375 C -1.09375 -28.113281 -1.546875 -27.78125 -2.015625 -27.4375 C -2.097656 -27.394531 -2.15625 -27.34375 -2.1875 -27.28125 C -2.488281 -27.050781 -2.816406 -26.859375 -3.171875 -26.703125 C -3.328125 -26.597656 -3.5 -26.535156 -3.6875 -26.515625 C -3.882812 -26.503906 -4.046875 -26.566406 -4.171875 -26.703125 C -4.304688 -26.878906 -4.332031 -27.050781 -4.25 -27.21875 C -4.175781 -27.394531 -4.0625 -27.550781 -3.90625 -27.6875 C -3.894531 -27.707031 -3.859375 -27.734375 -3.796875 -27.765625 C -3.046875 -28.390625 -2.257812 -29.007812 -1.4375 -29.625 C 1.1875 -31.53125 3.878906 -33.332031 6.640625 -35.03125 C 9.398438 -36.738281 12.203125 -38.367188 15.046875 -39.921875 C 26.546875 -46.253906 38.425781 -51.726562 50.6875 -56.34375 C 53.632812 -57.445312 56.59375 -58.5 59.5625 -59.5 C 62.539062 -60.507812 65.5625 -61.390625 68.625 -62.140625 C 69.507812 -62.335938 70.398438 -62.53125 71.296875 -62.71875 C 71.703125 -62.820312 72.117188 -62.921875 72.546875 -63.015625 C 74.460938 -63.328125 76.394531 -63.5 78.34375 -63.53125 C 79.175781 -63.570312 79.992188 -63.453125 80.796875 -63.171875 Z M 39.375 -19.984375 C 39.5625 -19.972656 39.742188 -19.9375 39.921875 -19.875 C 40.097656 -19.8125 40.226562 -19.734375 40.3125 -19.640625 C 40.394531 -19.554688 40.414062 -19.46875 40.375 -19.375 C 40.28125 -19.1875 40.15625 -19.066406 40 -19.015625 C 39.84375 -18.972656 39.6875 -18.9375 39.53125 -18.90625 C 39.5 -18.90625 39.46875 -18.898438 39.4375 -18.890625 C 36.726562 -18.453125 34.015625 -17.878906 31.296875 -17.171875 C 29.867188 -16.816406 28.425781 -16.476562 26.96875 -16.15625 C 26.46875 -16.039062 26.179688 -15.726562 26.109375 -15.21875 C 26.015625 -14.8125 25.90625 -14.40625 25.78125 -14 C 25.71875 -13.769531 25.664062 -13.53125 25.625 -13.28125 C 25.394531 -12.40625 25.1875 -11.550781 25 -10.71875 C 23.300781 -3.4375 21.484375 3.804688 19.546875 11.015625 C 18.984375 13.023438 18.363281 15.007812 17.6875 16.96875 C 17.6875 17 17.679688 17.023438 17.671875 17.046875 C 17.453125 17.679688 17.15625 18.300781 16.78125 18.90625 C 16.457031 19.457031 15.953125 19.71875 15.265625 19.6875 C 15.066406 19.65625 14.894531 19.582031 14.75 19.46875 C 14.601562 19.363281 14.515625 19.21875 14.484375 19.03125 C 14.453125 18.570312 14.460938 18.125 14.515625 17.6875 C 14.554688 17.363281 14.601562 17.023438 14.65625 16.671875 C 14.894531 14.941406 15.164062 13.203125 15.46875 11.453125 C 16.832031 3.742188 18.632812 -3.859375 20.875 -11.359375 C 21.082031 -12.078125 21.347656 -12.789062 21.671875 -13.5 C 21.753906 -13.664062 21.890625 -13.773438 22.078125 -13.828125 C 22.265625 -13.890625 22.453125 -13.910156 22.640625 -13.890625 C 22.953125 -13.847656 23.097656 -13.625 23.078125 -13.21875 C 23.054688 -12.820312 22.96875 -12.359375 22.8125 -11.828125 C 22.65625 -11.296875 22.492188 -10.816406 22.328125 -10.390625 C 22.203125 -10.046875 22.117188 -9.796875 22.078125 -9.640625 C 19.796875 -1.566406 18.554688 3.125 18.359375 4.4375 C 18.273438 4.894531 18.242188 5.195312 18.265625 5.34375 C 18.296875 5.5 18.359375 5.554688 18.453125 5.515625 C 18.554688 5.484375 18.660156 5.394531 18.765625 5.25 C 18.867188 5.113281 18.96875 4.972656 19.0625 4.828125 C 19.15625 4.679688 19.21875 4.585938 19.25 4.546875 C 19.34375 4.128906 19.429688 3.707031 19.515625 3.28125 C 19.890625 1.875 20.25 0.476562 20.59375 -0.90625 C 20.695312 -1.320312 20.800781 -1.726562 20.90625 -2.125 C 21.632812 -5.144531 22.359375 -8.160156 23.078125 -11.171875 C 23.109375 -11.285156 23.148438 -11.457031 23.203125 -11.6875 C 23.359375 -12.125 23.507812 -12.632812 23.65625 -13.21875 C 23.800781 -13.800781 23.863281 -14.3125 23.84375 -14.75 C 23.832031 -15.195312 23.6875 -15.40625 23.40625 -15.375 C 22.832031 -15.28125 22.242188 -15.1875 21.640625 -15.09375 C 21.265625 -15.03125 20.882812 -14.96875 20.5 -14.90625 C 20.175781 -14.851562 19.835938 -14.800781 19.484375 -14.75 C 18.359375 -14.5625 17.226562 -14.390625 16.09375 -14.234375 C 15.789062 -14.210938 15.503906 -14.242188 15.234375 -14.328125 C 15.203125 -14.347656 15.175781 -14.390625 15.15625 -14.453125 C 15.132812 -14.515625 15.097656 -14.585938 15.046875 -14.671875 C 15.046875 -14.691406 15.046875 -14.710938 15.046875 -14.734375 C 15.035156 -14.765625 15.039062 -14.789062 15.0625 -14.8125 C 15.09375 -14.84375 15.117188 -14.875 15.140625 -14.90625 C 15.265625 -15.039062 15.398438 -15.128906 15.546875 -15.171875 C 15.703125 -15.222656 15.863281 -15.257812 16.03125 -15.28125 C 16.070312 -15.289062 16.117188 -15.300781 16.171875 -15.3125 C 16.796875 -15.4375 17.425781 -15.566406 18.0625 -15.703125 C 19.695312 -16.066406 21.335938 -16.390625 22.984375 -16.671875 C 23.554688 -16.765625 23.976562 -16.957031 24.25 -17.25 C 24.519531 -17.550781 24.703125 -17.972656 24.796875 -18.515625 C 25.273438 -20.753906 25.765625 -22.992188 26.265625 -25.234375 C 26.785156 -27.628906 27.300781 -30.019531 27.8125 -32.40625 C 28.1875 -34.226562 28.53125 -36.054688 28.84375 -37.890625 C 29.007812 -38.859375 29.191406 -39.84375 29.390625 -40.84375 C 29.378906 -40.875 29.382812 -40.898438 29.40625 -40.921875 C 29.457031 -41.347656 29.5625 -41.75 29.71875 -42.125 C 29.820312 -42.3125 29.960938 -42.425781 30.140625 -42.46875 C 30.316406 -42.507812 30.503906 -42.519531 30.703125 -42.5 C 30.867188 -42.445312 31.007812 -42.367188 31.125 -42.265625 C 31.238281 -42.171875 31.289062 -42.046875 31.28125 -41.890625 C 31.300781 -41.304688 31.28125 -40.710938 31.21875 -40.109375 C 30.820312 -37.203125 30.3125 -34.320312 29.6875 -31.46875 C 29.644531 -31.394531 29.613281 -31.316406 29.59375 -31.234375 C 29.050781 -28.554688 28.472656 -25.890625 27.859375 -23.234375 C 27.578125 -22.015625 27.296875 -20.800781 27.015625 -19.59375 C 27.023438 -19.5625 27.03125 -19.546875 27.03125 -19.546875 C 26.957031 -19.191406 26.882812 -18.820312 26.8125 -18.4375 C 26.738281 -18.09375 26.769531 -17.851562 26.90625 -17.71875 C 27.050781 -17.59375 27.316406 -17.566406 27.703125 -17.640625 C 28.203125 -17.710938 28.707031 -17.820312 29.21875 -17.96875 C 29.4375 -18.007812 29.664062 -18.050781 29.90625 -18.09375 C 29.945312 -18.09375 29.976562 -18.109375 30 -18.140625 C 32.90625 -18.710938 35.800781 -19.285156 38.6875 -19.859375 C 38.914062 -19.929688 39.144531 -19.972656 39.375 -19.984375 Z M 39.375 -19.984375 "/></g></g><g transform="translate(263.131565, 194.972649)"><g><path d="M 5.6875 -8.4375 C 5.195312 -7.601562 4.578125 -6.8125 3.828125 -6.0625 C 3.085938 -5.3125 2.203125 -4.742188 1.171875 -4.359375 C 0.148438 -3.972656 -0.679688 -3.914062 -1.328125 -4.1875 C -1.984375 -4.457031 -2.234375 -5.257812 -2.078125 -6.59375 C -1.835938 -7.988281 -1.40625 -9.347656 -0.78125 -10.671875 C -0.632812 -10.960938 -0.398438 -11.1875 -0.078125 -11.34375 C 0.160156 -11.4375 0.390625 -11.425781 0.609375 -11.3125 C 0.828125 -11.195312 0.929688 -11.023438 0.921875 -10.796875 C 0.816406 -10.347656 0.691406 -9.898438 0.546875 -9.453125 C 0.410156 -9.003906 0.320312 -8.710938 0.28125 -8.578125 C -0.0195312 -7.765625 -0.179688 -6.941406 -0.203125 -6.109375 C -0.128906 -5.648438 0.488281 -5.722656 1.65625 -6.328125 C 2.820312 -6.929688 3.90625 -7.867188 4.90625 -9.140625 C 5.90625 -10.410156 6.410156 -10.816406 6.421875 -10.359375 C 6.429688 -9.910156 6.1875 -9.269531 5.6875 -8.4375 Z M 1.75 -13.75 C 1.6875 -13.6875 1.566406 -13.609375 1.390625 -13.515625 C 1.222656 -13.429688 1.039062 -13.351562 0.84375 -13.28125 C 0.65625 -13.21875 0.492188 -13.222656 0.359375 -13.296875 C 0.234375 -13.378906 0.203125 -13.566406 0.265625 -13.859375 C 0.378906 -14.367188 0.503906 -14.820312 0.640625 -15.21875 C 0.773438 -15.625 0.972656 -16.078125 1.234375 -16.578125 C 1.410156 -16.796875 1.617188 -16.929688 1.859375 -16.984375 C 2.097656 -17.035156 2.3125 -17.003906 2.5 -16.890625 C 2.6875 -16.785156 2.765625 -16.601562 2.734375 -16.34375 C 2.617188 -15.375 2.289062 -14.507812 1.75 -13.75 Z M 1.75 -13.75 "/></g></g><g transform="translate(269.898355, 193.873562)"><g><path d="M 12.328125 -10.890625 C 12.554688 -10.691406 12.394531 -10.234375 11.84375 -9.515625 C 11.300781 -8.804688 10.695312 -8.179688 10.03125 -7.640625 C 9.375 -7.109375 8.597656 -6.550781 7.703125 -5.96875 C 7.117188 -5.582031 6.460938 -5.378906 5.734375 -5.359375 C 5.003906 -5.335938 4.570312 -5.710938 4.4375 -6.484375 C 4.3125 -7.265625 4.363281 -8.0625 4.59375 -8.875 C 4.820312 -9.726562 4.832031 -10.144531 4.625 -10.125 C 4.425781 -10.113281 4.039062 -9.859375 3.46875 -9.359375 C 1.988281 -8.003906 0.65625 -6.515625 -0.53125 -4.890625 C -0.84375 -4.367188 -1.289062 -4.03125 -1.875 -3.875 C -2.175781 -3.832031 -2.425781 -3.890625 -2.625 -4.046875 C -2.820312 -4.210938 -2.875 -4.414062 -2.78125 -4.65625 C -2.070312 -6.695312 -1.347656 -8.726562 -0.609375 -10.75 C -0.429688 -11.164062 -0.117188 -11.457031 0.328125 -11.625 C 0.515625 -11.6875 0.703125 -11.65625 0.890625 -11.53125 C 1.085938 -11.40625 1.203125 -11.242188 1.234375 -11.046875 C 1.242188 -10.847656 1.207031 -10.613281 1.125 -10.34375 C 1.082031 -10.1875 1.046875 -10.035156 1.015625 -9.890625 C 0.992188 -9.742188 1 -9.625 1.03125 -9.53125 C 1.0625 -9.4375 1.140625 -9.414062 1.265625 -9.46875 C 1.421875 -9.59375 1.570312 -9.722656 1.71875 -9.859375 C 2.125 -10.191406 2.507812 -10.507812 2.875 -10.8125 C 3.195312 -11.0625 3.539062 -11.300781 3.90625 -11.53125 C 4.28125 -11.757812 4.675781 -11.9375 5.09375 -12.0625 C 5.78125 -12.21875 6.296875 -12.140625 6.640625 -11.828125 C 6.992188 -11.523438 7.113281 -11.035156 7 -10.359375 C 6.851562 -9.742188 6.703125 -9.128906 6.546875 -8.515625 C 6.316406 -7.941406 6.328125 -7.53125 6.578125 -7.28125 C 6.828125 -7.039062 7.738281 -7.519531 9.3125 -8.71875 L 10.5 -9.671875 C 11.601562 -10.660156 12.210938 -11.066406 12.328125 -10.890625 Z M 12.328125 -10.890625 "/></g></g><g transform="translate(282.616452, 191.807841)"><g><path d="M 8.8125 -8.265625 C 8.25 -7.492188 7.5625 -6.800781 6.75 -6.1875 C 5.9375 -5.582031 5.238281 -5.160156 4.65625 -4.921875 C 4.070312 -4.679688 3.46875 -4.492188 2.84375 -4.359375 C 1.820312 -4.148438 0.859375 -4.132812 -0.046875 -4.3125 C -1.546875 -4.664062 -2.207031 -5.675781 -2.03125 -7.34375 C -1.851562 -8.78125 -1.207031 -9.984375 -0.09375 -10.953125 C 1.019531 -11.921875 2.238281 -12.503906 3.5625 -12.703125 C 3.5625 -12.703125 3.570312 -12.703125 3.59375 -12.703125 C 3.925781 -12.785156 4.253906 -12.816406 4.578125 -12.796875 C 5.109375 -12.691406 5.476562 -12.441406 5.6875 -12.046875 C 5.894531 -11.660156 5.878906 -11.1875 5.640625 -10.625 C 5.078125 -9.375 4.171875 -8.585938 2.921875 -8.265625 C 2.085938 -8.046875 1.265625 -7.957031 0.453125 -8 C 0.304688 -7.988281 0.179688 -7.921875 0.078125 -7.796875 C -0.0234375 -7.679688 -0.078125 -7.539062 -0.078125 -7.375 C -0.148438 -6.34375 0.257812 -5.757812 1.15625 -5.625 C 2.257812 -5.425781 3.34375 -5.601562 4.40625 -6.15625 C 5.632812 -6.769531 6.738281 -7.726562 7.71875 -9.03125 C 8.707031 -10.34375 9.296875 -10.972656 9.484375 -10.921875 C 9.679688 -10.878906 9.773438 -10.675781 9.765625 -10.3125 C 9.691406 -9.71875 9.375 -9.035156 8.8125 -8.265625 Z M 0.96875 -9.859375 C 0.90625 -9.765625 0.867188 -9.664062 0.859375 -9.5625 C 0.847656 -9.457031 0.898438 -9.378906 1.015625 -9.328125 C 1.453125 -9.160156 1.898438 -9.144531 2.359375 -9.28125 C 2.828125 -9.425781 3.203125 -9.671875 3.484375 -10.015625 C 3.773438 -10.367188 3.859375 -10.75 3.734375 -11.15625 C 3.679688 -11.3125 3.585938 -11.398438 3.453125 -11.421875 C 3.316406 -11.441406 3.191406 -11.425781 3.078125 -11.375 C 2.234375 -11.082031 1.53125 -10.578125 0.96875 -9.859375 Z M 0.96875 -9.859375 "/></g></g><g transform="translate(292.714585, 190.167665)"><g><path d="M 6.984375 -10.15625 C 5.253906 -9.175781 4.019531 -8.40625 3.28125 -7.84375 C 2.738281 -7.457031 2.4375 -7.160156 2.375 -6.953125 C 2.320312 -6.753906 2.445312 -6.421875 2.75 -5.953125 C 2.757812 -5.929688 2.785156 -5.898438 2.828125 -5.859375 C 3.179688 -5.273438 3.4375 -4.660156 3.59375 -4.015625 C 3.882812 -2.703125 2.898438 -1.585938 0.640625 -0.671875 C -1.609375 0.242188 -3.171875 0.515625 -4.046875 0.140625 C -4.921875 -0.222656 -5.265625 -0.8125 -5.078125 -1.625 C -4.898438 -2.445312 -4.234375 -3.351562 -3.078125 -4.34375 C -1.921875 -5.34375 -1.148438 -6.050781 -0.765625 -6.46875 C -0.390625 -6.882812 -0.328125 -7.296875 -0.578125 -7.703125 C -0.648438 -7.828125 -0.738281 -7.960938 -0.84375 -8.109375 C -1.039062 -8.453125 -1.253906 -8.796875 -1.484375 -9.140625 C -1.898438 -9.773438 -2.140625 -10.4375 -2.203125 -11.125 C -2.273438 -11.8125 -2.117188 -12.421875 -1.734375 -12.953125 C -1.347656 -13.484375 -0.679688 -13.84375 0.265625 -14.03125 C 0.804688 -14.132812 1.300781 -14.140625 1.75 -14.046875 C 2.207031 -13.953125 2.601562 -13.703125 2.9375 -13.296875 C 3.195312 -13.015625 3.175781 -12.71875 2.875 -12.40625 C 2.6875 -12.1875 2.457031 -12.117188 2.1875 -12.203125 C 2.019531 -12.253906 1.847656 -12.328125 1.671875 -12.421875 C 1.660156 -12.460938 1.65625 -12.484375 1.65625 -12.484375 C 1.582031 -12.515625 1.515625 -12.550781 1.453125 -12.59375 C 1.359375 -12.6875 1.265625 -12.757812 1.171875 -12.8125 C 0.847656 -12.96875 0.535156 -12.976562 0.234375 -12.84375 C -0.0546875 -12.71875 -0.242188 -12.445312 -0.328125 -12.03125 C -0.390625 -11.71875 -0.394531 -11.40625 -0.34375 -11.09375 C -0.25 -10.707031 -0.0976562 -10.347656 0.109375 -10.015625 C 0.234375 -9.816406 0.351562 -9.628906 0.46875 -9.453125 C 0.75 -8.972656 0.96875 -8.644531 1.125 -8.46875 C 1.289062 -8.300781 1.457031 -8.25 1.625 -8.3125 C 1.800781 -8.375 3.34375 -9.226562 6.25 -10.875 C 6.90625 -11.21875 7.148438 -10.976562 6.984375 -10.15625 Z M 0.515625 -2.3125 C 1.285156 -2.726562 1.546875 -3.328125 1.296875 -4.109375 C 1.285156 -4.171875 1.257812 -4.238281 1.21875 -4.3125 C 1.101562 -4.738281 0.957031 -5.054688 0.78125 -5.265625 C 0.601562 -5.472656 0.289062 -5.414062 -0.15625 -5.09375 C -1.238281 -4.21875 -2.21875 -3.238281 -3.09375 -2.15625 C -3.15625 -2.0625 -3.210938 -1.972656 -3.265625 -1.890625 C -3.265625 -1.890625 -3.269531 -1.875 -3.28125 -1.84375 C -3.332031 -1.738281 -3.328125 -1.628906 -3.265625 -1.515625 C -3.203125 -1.398438 -3.085938 -1.359375 -2.921875 -1.390625 C -1.691406 -1.398438 -0.546875 -1.707031 0.515625 -2.3125 Z M 0.515625 -2.3125 "/></g></g><g transform="translate(300.400965, 188.919214)"><g><path d="M 9.484375 -10.140625 C 8.222656 -8.054688 6.921875 -6.457031 5.578125 -5.34375 C 4.234375 -4.238281 2.691406 -3.695312 0.953125 -3.71875 C -0.785156 -3.738281 -1.671875 -4.765625 -1.703125 -6.796875 C -1.648438 -7.816406 -1.519531 -8.835938 -1.3125 -9.859375 C -0.769531 -12.210938 -0.222656 -14.550781 0.328125 -16.875 C 0.492188 -17.71875 0.679688 -18.5625 0.890625 -19.40625 C 0.941406 -19.59375 0.988281 -19.78125 1.03125 -19.96875 C 1.101562 -20.269531 1.179688 -20.582031 1.265625 -20.90625 C 1.367188 -21.445312 1.125 -21.679688 0.53125 -21.609375 C 0.195312 -21.554688 -0.128906 -21.503906 -0.453125 -21.453125 C -0.597656 -21.421875 -0.765625 -21.390625 -0.953125 -21.359375 C -1.128906 -21.316406 -1.304688 -21.269531 -1.484375 -21.21875 C -1.773438 -21.132812 -2.066406 -21.066406 -2.359375 -21.015625 C -2.660156 -20.972656 -2.953125 -21.007812 -3.234375 -21.125 C -3.304688 -21.132812 -3.367188 -21.171875 -3.421875 -21.234375 C -3.472656 -21.296875 -3.503906 -21.367188 -3.515625 -21.453125 C -3.503906 -21.492188 -3.476562 -21.550781 -3.4375 -21.625 C -3.394531 -21.695312 -3.332031 -21.753906 -3.25 -21.796875 C -3.019531 -21.941406 -2.765625 -22.054688 -2.484375 -22.140625 C -1.773438 -22.296875 -1.070312 -22.4375 -0.375 -22.5625 C -0.09375 -22.613281 0.148438 -22.65625 0.359375 -22.6875 C 0.816406 -22.757812 1.15625 -22.832031 1.375 -22.90625 C 1.601562 -22.976562 1.765625 -23.128906 1.859375 -23.359375 C 1.960938 -23.585938 2.070312 -23.929688 2.1875 -24.390625 C 2.257812 -24.640625 2.351562 -24.914062 2.46875 -25.21875 C 2.707031 -26.09375 2.953125 -26.984375 3.203125 -27.890625 C 3.304688 -28.296875 3.421875 -28.695312 3.546875 -29.09375 C 3.648438 -29.46875 3.847656 -29.78125 4.140625 -30.03125 C 4.421875 -30.238281 4.691406 -30.273438 4.953125 -30.140625 C 5.035156 -30.097656 5.101562 -30.023438 5.15625 -29.921875 C 5.21875 -29.828125 5.253906 -29.738281 5.265625 -29.65625 C 5.335938 -29.207031 5.289062 -28.75 5.125 -28.28125 C 5.09375 -28.1875 5.0625 -28.066406 5.03125 -27.921875 C 4.945312 -27.484375 4.859375 -27.035156 4.765625 -26.578125 C 4.546875 -25.742188 4.351562 -24.890625 4.1875 -24.015625 C 4.125 -23.847656 4.140625 -23.710938 4.234375 -23.609375 C 4.335938 -23.503906 4.460938 -23.460938 4.609375 -23.484375 C 5.429688 -23.585938 6.238281 -23.703125 7.03125 -23.828125 C 7.4375 -23.898438 7.835938 -23.96875 8.234375 -24.03125 C 9.503906 -24.21875 10.046875 -24.128906 9.859375 -23.765625 C 9.710938 -23.523438 9.539062 -23.375 9.34375 -23.3125 C 9.15625 -23.257812 8.953125 -23.234375 8.734375 -23.234375 C 8.597656 -23.210938 8.46875 -23.191406 8.34375 -23.171875 C 7.0625 -22.867188 5.785156 -22.609375 4.515625 -22.390625 C 3.929688 -22.285156 3.582031 -21.953125 3.46875 -21.390625 C 3.351562 -20.859375 3.234375 -20.316406 3.109375 -19.765625 C 2.921875 -19.046875 2.757812 -18.351562 2.625 -17.6875 C 2.46875 -17.050781 2.304688 -16.398438 2.140625 -15.734375 C 1.734375 -14.066406 1.351562 -12.40625 1 -10.75 C 0.78125 -9.675781 0.648438 -8.585938 0.609375 -7.484375 C 0.429688 -5.472656 1.296875 -4.859375 3.203125 -5.640625 C 5.066406 -6.410156 6.878906 -8.132812 8.640625 -10.8125 C 9.453125 -11.570312 9.734375 -11.347656 9.484375 -10.140625 Z M 9.484375 -10.140625 "/></g></g></g><g fill="#000000" fill-opacity="1"><g transform="translate(310.261972, 187.317553)"><g/></g></g><g clip-path="url(#84ac2dd495)"><g clip-path="url(#c608b0c1eb)"><path fill="#000000" d="M 314.480469 177.046875 L 318.546875 177.046875 L 318.546875 181.113281 L 314.480469 181.113281 Z M 314.480469 177.046875 " fill-opacity="1" fill-rule="nonzero"/></g></g></svg>